<?xml version="1.0" encoding="UTF-8"?>
<svg id="Capa_2" data-name="Capa 2" xmlns="http://www.w3.org/2000/svg" viewBox="0 0 128.54 94.38">
  <defs>
    <style>
      .cls-1 {
        fill: #d82323;
      }
    </style>
  </defs>
  <g id="Capa_1-2" data-name="Capa 1">
    <path class="cls-1" d="M81.45,43.7l-30.24,30.63c-2.89,2.57-8.64,3.22-10.52-.7-3.33-6.95,5.99-27.34,8.03-35.32.27-1.06,1.59-3.23.24-3.89-14.94,17.96-26.99,37.97-39.16,57.85-4.47,4.48-11.47,1.46-9.44-5.25,1.29-4.27,12.45-20.7,15.66-25.68,5.19-8.07,10.62-16.15,16.53-23.72,4.57-5.85,19.5-25.82,27.8-17.69,6.93,6.79-4.03,24.59-4.18,33.06,4.78-4.48,9.12-9.48,13.92-13.94,4.12-3.82,13.5-10.57,16.56-14.4,3.39-4.25,4.12-26.88,14.42-20.68,3.22.92,0,7.58,2.55,6.7,4.22-1.45,19.75-16.37,23.76-8.25.83,1.68.97,4.57-.01,6.2-.65,1.08-15.45,9.39-18.39,11.53-2.52,1.84-11.06,8.32-12.28,10.42-2.1,3.6-5.75,20.31-6.68,25.31-.87,4.68-3.15,16.25-2.36,20.33.78,4.07,3.84,2.54,6.6,1.44,7.11-2.84,23.73-19.65,28.2-20.37,5.52-.88,8.32,5.49,3.9,10.16-4.51,4.76-27.41,21.53-33.27,22.47-25.07,4.02-13.5-32.93-11.63-46.2Z"/>
  </g>
</svg>