<?xml version="1.0" encoding="UTF-8"?>
<svg id="Capa_2" data-name="Capa 2" xmlns="http://www.w3.org/2000/svg" viewBox="0 0 397.27 94.38">
  <defs>
    <style>
      .cls-1 {
        fill: #edddce;
      }

      .cls-2 {
        fill: #d82323;
      }
    </style>
  </defs>
  <g id="Capa_1-2" data-name="Capa 1">
    <g>
      <path class="cls-2" d="M81.45,43.7l-30.24,30.63c-2.89,2.57-8.64,3.22-10.52-.7-3.33-6.95,5.99-27.34,8.03-35.32.27-1.06,1.59-3.23.24-3.89-14.94,17.96-26.99,37.97-39.16,57.85-4.47,4.48-11.47,1.46-9.44-5.25,1.29-4.27,12.45-20.7,15.66-25.68,5.19-8.07,10.62-16.15,16.53-23.72,4.57-5.85,19.5-25.82,27.8-17.69,6.93,6.79-4.03,24.59-4.18,33.06,4.78-4.48,9.12-9.48,13.92-13.94,4.12-3.82,13.5-10.57,16.56-14.4,3.39-4.25,4.12-26.88,14.42-20.68,3.22.92,0,7.58,2.55,6.7,4.22-1.45,19.75-16.37,23.76-8.25.83,1.68.97,4.57-.01,6.2-.65,1.08-15.45,9.39-18.39,11.53-2.52,1.84-11.06,8.32-12.28,10.42-2.1,3.6-5.75,20.31-6.68,25.31-.87,4.68-3.15,16.25-2.36,20.33.78,4.07,3.84,2.54,6.6,1.44,7.11-2.84,23.73-19.65,28.2-20.37,5.52-.88,8.32,5.49,3.9,10.16-4.51,4.76-27.41,21.53-33.27,22.47-25.07,4.02-13.5-32.93-11.63-46.2Z"/>
      <g>
        <g>
          <path class="cls-1" d="M166.66,68.38v.98h-7.58v-10.71h7.35v.98h-6.21v3.81h5.54v.96h-5.54v3.98h6.44Z"/>
          <path class="cls-1" d="M167.84,68.44l.49-.86c.64.5,1.73.9,2.86.9,1.53,0,2.16-.52,2.16-1.32,0-2.1-5.22-.44-5.22-3.63,0-1.32,1.13-2.3,3.18-2.3,1.04,0,2.17.29,2.85.75l-.47.87c-.7-.49-1.55-.69-2.37-.69-1.45,0-2.1.57-2.1,1.33,0,2.17,5.22.54,5.22,3.63,0,1.39-1.22,2.3-3.32,2.3-1.33,0-2.62-.43-3.28-1Z"/>
          <path class="cls-1" d="M180.68,68.87c-.43.38-1.07.57-1.7.57-1.52,0-2.36-.86-2.36-2.34v-4.87h-1.44v-.92h1.44v-1.76h1.09v1.76h2.45v.92h-2.45v4.81c0,.95.49,1.47,1.39,1.47.44,0,.89-.14,1.19-.41l.38.78Z"/>
          <path class="cls-1" d="M189.91,61.31v8.05h-1.04v-1.47c-.57.98-1.61,1.55-2.89,1.55-2.05,0-3.4-1.15-3.4-3.46v-4.67h1.09v4.56c0,1.71.89,2.59,2.42,2.59,1.68,0,2.74-1.09,2.74-2.92v-4.23h1.09Z"/>
          <path class="cls-1" d="M200.3,58v11.36h-1.04v-1.59c-.66,1.09-1.78,1.67-3.11,1.67-2.3,0-4.01-1.67-4.01-4.1s1.71-4.09,4.01-4.09c1.29,0,2.39.55,3.06,1.59v-4.84h1.09ZM199.23,65.34c0-1.88-1.29-3.14-2.98-3.14s-3,1.25-3,3.14,1.29,3.14,3,3.14,2.98-1.26,2.98-3.14Z"/>
          <path class="cls-1" d="M203.08,58.77c0-.41.35-.77.8-.77s.8.34.8.75c0,.44-.34.8-.8.8s-.8-.35-.8-.78ZM203.32,61.31h1.09v8.05h-1.09v-8.05Z"/>
          <path class="cls-1" d="M206.63,65.34c0-2.39,1.74-4.09,4.1-4.09s4.09,1.7,4.09,4.09-1.73,4.1-4.09,4.1-4.1-1.72-4.1-4.1ZM213.72,65.34c0-1.88-1.27-3.14-2.99-3.14s-3,1.25-3,3.14,1.29,3.14,3,3.14,2.99-1.26,2.99-3.14Z"/>
          <path class="cls-1" d="M219.45,67.92l.67-.77c.58.86,1.36,1.32,2.31,1.32,1.32,0,1.99-.78,1.99-2.36v-6.49h-3.92v-.98h5.04v7.42c0,2.26-1.07,3.38-3.12,3.38-1.21,0-2.31-.55-2.97-1.53Z"/>
          <path class="cls-1" d="M235.96,61.31v8.05h-1.04v-1.47c-.57.98-1.61,1.55-2.89,1.55-2.05,0-3.4-1.15-3.4-3.46v-4.67h1.09v4.56c0,1.71.89,2.59,2.42,2.59,1.68,0,2.74-1.09,2.74-2.92v-4.23h1.09Z"/>
          <path class="cls-1" d="M243.06,61.25v1.06c-.09,0-.18-.02-.26-.02-1.68,0-2.71,1.07-2.71,2.97v4.1h-1.09v-8.05h1.04v1.58c.51-1.07,1.53-1.64,3.02-1.64Z"/>
          <path class="cls-1" d="M246.67,58.17h1.45l-2.48,1.9h-1.07l2.1-1.9ZM245.02,61.31h1.09v8.05h-1.09v-8.05Z"/>
          <path class="cls-1" d="M256.48,58v11.36h-1.04v-1.59c-.66,1.09-1.78,1.67-3.11,1.67-2.3,0-4.01-1.67-4.01-4.1s1.71-4.09,4.01-4.09c1.29,0,2.39.55,3.06,1.59v-4.84h1.09ZM255.41,65.34c0-1.88-1.29-3.14-2.98-3.14s-3,1.25-3,3.14,1.29,3.14,3,3.14,2.98-1.26,2.98-3.14Z"/>
          <path class="cls-1" d="M259.26,58.77c0-.41.35-.77.79-.77s.8.34.8.75c0,.44-.34.8-.8.8s-.79-.35-.79-.78ZM259.5,61.31h1.09v8.05h-1.09v-8.05Z"/>
          <path class="cls-1" d="M262.81,65.34c0-2.4,1.75-4.09,4.15-4.09,1.36,0,2.51.54,3.15,1.59l-.81.55c-.55-.81-1.41-1.19-2.34-1.19-1.76,0-3.05,1.25-3.05,3.14s1.29,3.14,3.05,3.14c.93,0,1.79-.37,2.34-1.18l.81.55c-.64,1.04-1.79,1.59-3.15,1.59-2.4,0-4.15-1.7-4.15-4.1Z"/>
          <path class="cls-1" d="M271.28,65.34c0-2.39,1.75-4.09,4.1-4.09s4.09,1.7,4.09,4.09-1.73,4.1-4.09,4.1-4.1-1.72-4.1-4.1ZM278.37,65.34c0-1.88-1.27-3.14-2.99-3.14s-3,1.25-3,3.14,1.29,3.14,3,3.14,2.99-1.26,2.99-3.14Z"/>
        </g>
        <g>
          <polygon class="cls-1" points="182.78 47 182.72 25.37 179.41 25.37 170.97 39.7 162.39 25.37 159.08 25.37 159.08 47 162.91 47 162.91 32.86 170.02 44.56 171.84 44.56 178.92 32.64 178.92 47 182.78 47"/>
          <path class="cls-1" d="M200.08,32.01c-1.3-1.15-3.15-1.73-5.56-1.73-1.32,0-2.59.18-3.8.53-1.22.35-2.28.87-3.18,1.54l1.51,2.81c.64-.52,1.4-.92,2.29-1.2.88-.29,1.78-.43,2.69-.43,1.4,0,2.45.31,3.14.94.69.63,1.03,1.51,1.03,2.64v.25h-4.29c-1.67,0-3.01.22-4.02.65-1.01.43-1.74,1.02-2.18,1.76-.44.74-.66,1.58-.66,2.5s.25,1.8.76,2.55c.5.75,1.22,1.34,2.15,1.76s2.01.63,3.24.63c1.48,0,2.7-.27,3.65-.8.66-.37,1.16-.85,1.54-1.43v2.02h3.65v-9.67c0-2.39-.65-4.16-1.95-5.31ZM196.54,43.76c-.75.43-1.6.65-2.55.65s-1.76-.21-2.32-.62c-.56-.41-.83-.96-.83-1.64,0-.64.23-1.17.7-1.59.46-.42,1.34-.63,2.64-.63h4.02v1.92c-.35.84-.9,1.48-1.65,1.92Z"/>
          <path class="cls-1" d="M215.78,43.35c-.56.45-1.26.68-2.1.68-.74,0-1.32-.22-1.73-.65-.41-.43-.62-1.04-.62-1.82v-7.85h4.45v-3.09h-4.45v-3.77h-3.83v3.77h-2.72v3.09h2.72v7.97c0,1.81.49,3.19,1.48,4.13.99.94,2.39,1.41,4.2,1.41.68,0,1.35-.09,2.01-.28.66-.19,1.23-.46,1.7-.83l-1.11-2.75Z"/>
          <path class="cls-1" d="M222.02,27.78c-.72,0-1.31-.23-1.78-.68-.46-.45-.7-1.01-.7-1.67,0-.62.23-1.15.7-1.61.46-.45,1.06-.68,1.78-.68s1.31.21,1.78.63c.46.42.7.96.7,1.62s-.23,1.22-.68,1.68c-.45.46-1.05.7-1.79.7ZM220.1,47v-16.5h3.83v16.5h-3.83Z"/>
          <path class="cls-1" d="M240.87,32.01c-1.3-1.15-3.15-1.73-5.56-1.73-1.32,0-2.59.18-3.8.53-1.22.35-2.28.87-3.18,1.54l1.51,2.81c.64-.52,1.4-.92,2.29-1.2.88-.29,1.78-.43,2.69-.43,1.4,0,2.45.31,3.14.94.69.63,1.03,1.51,1.03,2.64v.25h-4.29c-1.67,0-3.01.22-4.02.65-1.01.43-1.74,1.02-2.18,1.76-.44.74-.66,1.58-.66,2.5s.25,1.8.76,2.55c.5.75,1.22,1.34,2.15,1.76s2.01.63,3.24.63c1.48,0,2.7-.27,3.65-.8.66-.37,1.16-.85,1.54-1.43v2.02h3.65v-9.67c0-2.39-.65-4.16-1.95-5.31ZM237.33,43.76c-.75.43-1.6.65-2.55.65s-1.76-.21-2.32-.62c-.56-.41-.83-.96-.83-1.64,0-.64.23-1.17.7-1.59.46-.42,1.34-.63,2.64-.63h4.02v1.92c-.35.84-.9,1.48-1.65,1.92Z"/>
          <path class="cls-1" d="M252.89,47.22c-1.4,0-2.73-.18-3.99-.54-1.26-.36-2.27-.8-3.03-1.31l1.48-2.94c.74.47,1.63.86,2.66,1.16,1.03.3,2.07.45,3.12.45,1.19,0,2.06-.16,2.61-.48.55-.32.82-.76.82-1.31,0-.45-.19-.8-.56-1.03-.37-.24-.86-.42-1.45-.54-.6-.12-1.26-.24-1.99-.34-.73-.1-1.46-.24-2.19-.42-.73-.17-1.4-.43-1.99-.77s-1.08-.8-1.45-1.37-.56-1.35-.56-2.32c0-1.03.3-1.93.9-2.7.6-.77,1.44-1.37,2.52-1.81,1.08-.43,2.36-.65,3.85-.65,1.09,0,2.21.13,3.35.39s2.1.61,2.86,1.07l-1.51,2.94c-.76-.45-1.55-.77-2.35-.94-.8-.17-1.6-.26-2.38-.26-1.15,0-2.02.17-2.6.51s-.87.78-.87,1.31c0,.49.19.87.56,1.11s.85.44,1.45.57c.6.13,1.26.26,1.99.37.73.11,1.46.26,2.18.43.72.18,1.38.42,1.99.74s1.1.77,1.47,1.34c.37.58.56,1.33.56,2.26,0,1.05-.3,1.95-.91,2.7s-1.46,1.34-2.56,1.76-2.43.63-3.97.63Z"/>
          <path class="cls-1" d="M276.95,47v-18.23h-7.17v-3.4h18.35v3.4h-7.17v18.23h-4.02Z"/>
          <path class="cls-1" d="M302.66,32.01c-1.3-1.15-3.15-1.73-5.56-1.73-1.32,0-2.59.18-3.8.53-1.22.35-2.28.87-3.18,1.54l1.51,2.81c.64-.52,1.4-.92,2.29-1.2.88-.29,1.78-.43,2.69-.43,1.4,0,2.45.31,3.14.94.69.63,1.03,1.51,1.03,2.64v.25h-4.29c-1.67,0-3.01.22-4.02.65-1.01.43-1.74,1.02-2.18,1.76-.44.74-.66,1.58-.66,2.5s.25,1.8.76,2.55c.5.75,1.22,1.34,2.15,1.76s2.01.63,3.24.63c1.48,0,2.7-.27,3.65-.8.66-.37,1.16-.85,1.54-1.43v2.02h3.65v-9.67c0-2.39-.65-4.16-1.95-5.31ZM299.12,43.76c-.75.43-1.6.65-2.55.65s-1.76-.21-2.32-.62c-.56-.41-.83-.96-.83-1.64,0-.64.23-1.17.7-1.59.46-.42,1.34-.63,2.64-.63h4.02v1.92c-.35.84-.9,1.48-1.65,1.92Z"/>
          <path class="cls-1" d="M322.25,30.5v2.19c-.54-.65-1.18-1.18-1.93-1.56-1.12-.57-2.38-.85-3.79-.85-1.59,0-3.01.33-4.26.99-1.26.66-2.25,1.59-2.98,2.8-.73,1.21-1.1,2.61-1.1,4.22s.37,2.98,1.1,4.17c.73,1.2,1.73,2.13,2.98,2.8,1.26.67,2.68,1,4.26,1,1.4,0,2.66-.29,3.79-.87.67-.34,1.24-.8,1.75-1.36v.89c0,1.69-.42,2.95-1.27,3.78-.84.83-2.16,1.25-3.96,1.25-1.17,0-2.31-.18-3.4-.56-1.09-.37-2-.85-2.72-1.45l-1.73,2.87c.95.78,2.14,1.38,3.57,1.78,1.43.4,2.92.6,4.46.6,2.88,0,5.09-.71,6.61-2.12,1.52-1.41,2.29-3.61,2.29-6.6v-14h-3.68ZM321.49,40.71c-.42.71-1.01,1.27-1.78,1.67-.76.4-1.63.6-2.6.6s-1.84-.2-2.61-.6c-.77-.4-1.37-.96-1.79-1.67-.42-.71-.63-1.52-.63-2.43s.21-1.77.63-2.47c.42-.7,1.02-1.25,1.79-1.64.77-.39,1.64-.59,2.61-.59s1.83.2,2.6.59c.76.39,1.35.94,1.78,1.64.42.7.63,1.52.63,2.47s-.21,1.71-.63,2.43Z"/>
          <path class="cls-1" d="M331.03,47v-22.93h3.83v22.93h-3.83Z"/>
          <path class="cls-1" d="M341.87,27.78c-.72,0-1.31-.23-1.78-.68-.46-.45-.7-1.01-.7-1.67,0-.62.23-1.15.7-1.61.46-.45,1.06-.68,1.78-.68s1.31.21,1.78.63c.46.42.7.96.7,1.62s-.23,1.22-.68,1.68c-.45.46-1.05.7-1.79.7ZM339.96,47v-16.5h3.83v16.5h-3.83Z"/>
          <path class="cls-1" d="M363.28,34.33c-.72-1.28-1.71-2.27-2.97-2.98-1.26-.71-2.69-1.07-4.29-1.07s-3.12.37-4.4,1.1c-1.29.73-2.3,1.73-3.03,3-.73,1.27-1.1,2.72-1.1,4.37s.38,3.11,1.13,4.37c.75,1.27,1.81,2.27,3.18,3,1.37.73,2.97,1.1,4.8,1.1,1.44,0,2.72-.23,3.85-.68,1.12-.45,2.06-1.11,2.83-1.98l-2.1-2.41c-.58.6-1.24,1.05-1.98,1.36-.74.31-1.58.46-2.5.46-1.09,0-2.05-.21-2.87-.63s-1.46-1.01-1.9-1.78c-.28-.48-.46-1.01-.56-1.58h12.94c.02-.17.04-.36.05-.57s.02-.4.02-.54c0-1.75-.36-3.26-1.08-4.54ZM351.85,35.75c.39-.74.95-1.31,1.68-1.72.73-.4,1.56-.6,2.49-.6s1.77.2,2.47.6c.7.4,1.25.97,1.65,1.7.28.51.45,1.08.53,1.68h-9.34c.09-.61.25-1.17.52-1.67Z"/>
          <path class="cls-1" d="M373.67,31.16c-.79.43-1.42,1.01-1.88,1.74v-2.4h-3.68v16.5h3.83v-7.97c0-1.73.43-3.02,1.3-3.86s2.04-1.27,3.52-1.27c.12,0,.26,0,.4.02.14.01.29.03.43.05v-3.68c-1.54,0-2.85.29-3.92.88Z"/>
          <path class="cls-1" d="M388.47,47.22c-1.67,0-3.17-.37-4.5-1.1-1.33-.73-2.38-1.73-3.14-3.01-.76-1.28-1.14-2.73-1.14-4.36s.38-3.13,1.14-4.39c.76-1.26,1.8-2.25,3.12-2.98,1.32-.73,2.82-1.1,4.51-1.1s3.23.37,4.56,1.1c1.33.73,2.37,1.73,3.12,2.98.75,1.26,1.13,2.72,1.13,4.39s-.38,3.11-1.13,4.37c-.75,1.27-1.8,2.27-3.14,3-1.34.73-2.85,1.1-4.54,1.1ZM388.47,43.94c.95,0,1.79-.21,2.53-.63.74-.42,1.32-1.03,1.75-1.82.42-.79.63-1.7.63-2.73s-.21-1.96-.63-2.73c-.42-.77-1-1.37-1.75-1.79-.74-.42-1.58-.63-2.5-.63s-1.76.21-2.5.63c-.74.42-1.33,1.02-1.76,1.79-.43.77-.65,1.68-.65,2.73s.22,1.94.65,2.73c.43.79,1.02,1.4,1.76,1.82s1.57.63,2.47.63Z"/>
        </g>
      </g>
    </g>
  </g>
</svg>